<svg width="76" height="76" viewBox="0 0 76 76" fill="none" xmlns="http://www.w3.org/2000/svg">
<g id="Service" filter="url(#filter0_d_3112_5493)">
<rect x="8" y="6" width="60" height="60" rx="30" fill="white"/>
<rect x="8.5" y="6.5" width="59" height="59" rx="29.5" stroke="url(#paint0_linear_3112_5493)"/>
<g id="Group 30">
<path id="Vector" d="M53.05 27.224C53.3361 27.0819 53.5767 26.8626 53.7446 26.5909C53.9125 26.3192 54.001 26.0059 54 25.6865V22.8565C54.001 22.5371 53.9125 22.2237 53.7446 21.952C53.5767 21.6803 53.3361 21.461 53.05 21.319L51.2406 20.4146C51.1692 20.3789 51.0898 20.3621 51.01 20.3657C50.9302 20.3693 50.8526 20.3933 50.7847 20.4353C50.7168 20.4773 50.6607 20.536 50.6218 20.6058C50.5829 20.6755 50.5625 20.7541 50.5625 20.834V24.624L49.7813 25.0146L49 24.624V20.834C49 20.7541 48.9796 20.6755 48.9407 20.6058C48.9018 20.536 48.8457 20.4773 48.7778 20.4353C48.7099 20.3933 48.6323 20.3693 48.5525 20.3657C48.4727 20.3621 48.3933 20.3789 48.3219 20.4146L46.5125 21.319C46.2264 21.461 45.9858 21.6803 45.8179 21.952C45.65 22.2237 45.5615 22.5371 45.5625 22.8565V25.6865C45.5615 26.0059 45.65 26.3192 45.8179 26.5909C45.9858 26.8626 46.2264 27.0819 46.5125 27.224L48.0625 27.999V44.7315L46.5125 45.5065C46.2264 45.6485 45.9858 45.8678 45.8179 46.1395C45.65 46.4112 45.5615 46.7245 45.5625 47.044V49.874C45.5615 50.1934 45.65 50.5067 45.8179 50.7784C45.9858 51.0501 46.2264 51.2694 46.5125 51.4115L48.3219 52.3158C48.3933 52.3515 48.4727 52.3683 48.5525 52.3647C48.6323 52.3611 48.7099 52.3371 48.7778 52.2951C48.8457 52.2531 48.9018 52.1944 48.9407 52.1246C48.9796 52.0549 49 51.9763 49 51.8965V48.1065L49.7813 47.7158L50.5625 48.1065V51.8965C50.5625 52.0208 50.6119 52.14 50.6998 52.2279C50.7877 52.3158 50.9069 52.3652 51.0313 52.3652C51.1039 52.3654 51.1757 52.3484 51.2406 52.3158L53.05 51.4115C53.3361 51.2694 53.5767 51.0501 53.7446 50.7784C53.9125 50.5067 54.001 50.1934 54 49.874V47.044C54.001 46.7245 53.9125 46.4112 53.7446 46.1395C53.5767 45.8678 53.3361 45.6485 53.05 45.5065L51.5 44.7315V27.999L53.05 27.224Z" fill="url(#paint1_linear_3112_5493)"/>
<path id="Vector_2" d="M22 51.8965C22 52.0208 22.0494 52.14 22.1373 52.2279C22.2252 52.3158 22.3444 52.3652 22.4687 52.3652H43.7187C43.8431 52.3652 43.9623 52.3158 44.0502 52.2279C44.1381 52.14 44.1875 52.0208 44.1875 51.8965V49.8652H22V51.8965Z" fill="url(#paint2_linear_3112_5493)"/>
<path id="Vector_3" d="M32.625 28.8027H28.5625V30.9902H32.625V28.8027Z" fill="url(#paint3_linear_3112_5493)"/>
<path id="Vector_4" d="M37.625 28.8027H33.5625V30.9902H37.625V28.8027Z" fill="url(#paint4_linear_3112_5493)"/>
<path id="Vector_5" d="M37.7812 38.084C38.0401 38.084 38.25 37.8741 38.25 37.6152C38.25 37.3564 38.0401 37.1465 37.7812 37.1465C37.5224 37.1465 37.3125 37.3564 37.3125 37.6152C37.3125 37.8741 37.5224 38.084 37.7812 38.084Z" fill="url(#paint5_linear_3112_5493)"/>
<path id="Vector_6" d="M25.4375 22.709C25.4375 22.5847 25.4869 22.4654 25.5748 22.3775C25.6627 22.2896 25.7819 22.2402 25.9062 22.2402H40.2812C40.4056 22.2402 40.5248 22.2896 40.6127 22.3775C40.7006 22.4654 40.75 22.5847 40.75 22.709V48.9277H42.9375V22.084C42.9368 21.6283 42.7555 21.1916 42.4333 20.8694C42.1112 20.5472 41.6744 20.3659 41.2187 20.3652H24.9687C24.5131 20.3659 24.0763 20.5472 23.7541 20.8694C23.432 21.1916 23.2507 21.6283 23.25 22.084V48.9277H25.4375V22.709Z" fill="url(#paint6_linear_3112_5493)"/>
<path id="Vector_7" d="M30.5937 44.8652C30.5523 44.8652 30.5126 44.8817 30.4833 44.911C30.454 44.9403 30.4375 44.98 30.4375 45.0215V48.9277H35.75V45.0215C35.75 44.98 35.7335 44.9403 35.7042 44.911C35.6749 44.8817 35.6352 44.8652 35.5937 44.8652H30.5937ZM31.6875 45.959C31.6875 46.0833 31.6381 46.2025 31.5502 46.2904C31.4623 46.3783 31.3431 46.4277 31.2187 46.4277C31.0944 46.4277 30.9752 46.3783 30.8873 46.2904C30.7994 46.2025 30.75 46.0833 30.75 45.959V45.6465C30.75 45.5222 30.7994 45.4029 30.8873 45.315C30.9752 45.2271 31.0944 45.1777 31.2187 45.1777C31.3431 45.1777 31.4623 45.2271 31.5502 45.315C31.6381 45.4029 31.6875 45.5222 31.6875 45.6465V45.959ZM35.4375 45.959C35.4375 46.0833 35.3881 46.2025 35.3002 46.2904C35.2123 46.3783 35.0931 46.4277 34.9687 46.4277C34.8444 46.4277 34.7252 46.3783 34.6373 46.2904C34.5494 46.2025 34.5 46.0833 34.5 45.959V45.6465C34.5 45.5222 34.5494 45.4029 34.6373 45.315C34.7252 45.2271 34.8444 45.1777 34.9687 45.1777C35.0931 45.1777 35.2123 45.2271 35.3002 45.315C35.3881 45.4029 35.4375 45.5222 35.4375 45.6465V45.959Z" fill="url(#paint7_linear_3112_5493)"/>
<path id="Vector_8" d="M37.625 25.6777H33.5625V27.8652H37.625V25.6777Z" fill="url(#paint8_linear_3112_5493)"/>
<path id="Vector_9" d="M39.8125 48.9277V23.1777H26.375V48.9277H29.5V45.0215C29.5003 44.7315 29.6157 44.4535 29.8207 44.2484C30.0258 44.0434 30.3038 43.9281 30.5937 43.9277H35.5937C35.8837 43.9281 36.1617 44.0434 36.3668 44.2484C36.5718 44.4535 36.6872 44.7315 36.6875 45.0215V48.9277H39.8125ZM28.0937 31.9277C27.9694 31.9277 27.8502 31.8783 27.7623 31.7904C27.6744 31.7025 27.625 31.5833 27.625 31.459V25.209C27.625 25.0847 27.6744 24.9654 27.7623 24.8775C27.8502 24.7896 27.9694 24.7402 28.0937 24.7402H38.0937C38.2181 24.7402 38.3373 24.7896 38.4252 24.8775C38.5131 24.9654 38.5625 25.0847 38.5625 25.209V31.459C38.5625 31.5833 38.5131 31.7025 38.4252 31.7904C38.3373 31.8783 38.2181 31.9277 38.0937 31.9277H28.0937ZM36.375 37.6152C36.375 37.3371 36.4575 37.0652 36.612 36.834C36.7665 36.6027 36.9861 36.4225 37.2431 36.316C37.5001 36.2096 37.7828 36.1817 38.0556 36.236C38.3284 36.2903 38.5789 36.4242 38.7756 36.6209C38.9723 36.8175 39.1062 37.0681 39.1605 37.3409C39.2147 37.6137 39.1869 37.8964 39.0805 38.1534C38.974 38.4103 38.7938 38.63 38.5625 38.7845C38.3313 38.939 38.0594 39.0215 37.7812 39.0215C37.4084 39.0211 37.0509 38.8729 36.7872 38.6092C36.5236 38.3456 36.3753 37.9881 36.375 37.6152Z" fill="url(#paint9_linear_3112_5493)"/>
<path id="Vector_10" d="M32.625 25.6777H28.5625V27.8652H32.625V25.6777Z" fill="url(#paint10_linear_3112_5493)"/>
</g>
</g>
<defs>
<filter id="filter0_d_3112_5493" x="0" y="0" width="76" height="76" filterUnits="userSpaceOnUse" color-interpolation-filters="sRGB">
<feFlood flood-opacity="0" result="BackgroundImageFix"/>
<feColorMatrix in="SourceAlpha" type="matrix" values="0 0 0 0 0 0 0 0 0 0 0 0 0 0 0 0 0 0 127 0" result="hardAlpha"/>
<feOffset dy="2"/>
<feGaussianBlur stdDeviation="4"/>
<feColorMatrix type="matrix" values="0 0 0 0 0.0666667 0 0 0 0 0.0666667 0 0 0 0 0.0666667 0 0 0 0.1 0"/>
<feBlend mode="normal" in2="BackgroundImageFix" result="effect1_dropShadow_3112_5493"/>
<feBlend mode="normal" in="SourceGraphic" in2="effect1_dropShadow_3112_5493" result="shape"/>
</filter>
<linearGradient id="paint0_linear_3112_5493" x1="49.5" y1="64.3652" x2="27.5" y2="18.8652" gradientUnits="userSpaceOnUse">
<stop stop-color="#1485DB"/>
<stop offset="1" stop-color="white" stop-opacity="0"/>
</linearGradient>
<linearGradient id="paint1_linear_3112_5493" x1="49.8153" y1="30.8652" x2="49.172" y2="52.347" gradientUnits="userSpaceOnUse">
<stop stop-color="#1485DB"/>
<stop offset="1" stop-color="#0D5E9B"/>
</linearGradient>
<linearGradient id="paint2_linear_3112_5493" x1="33.1832" y1="50.6855" x2="33.1817" y2="52.3653" gradientUnits="userSpaceOnUse">
<stop stop-color="#1485DB"/>
<stop offset="1" stop-color="#0D5E9B"/>
</linearGradient>
<linearGradient id="paint3_linear_3112_5493" x1="30.6101" y1="29.5205" x2="30.6039" y2="30.9903" gradientUnits="userSpaceOnUse">
<stop stop-color="#1485DB"/>
<stop offset="1" stop-color="#0D5E9B"/>
</linearGradient>
<linearGradient id="paint4_linear_3112_5493" x1="35.6101" y1="29.5205" x2="35.6039" y2="30.9903" gradientUnits="userSpaceOnUse">
<stop stop-color="#1485DB"/>
<stop offset="1" stop-color="#0D5E9B"/>
</linearGradient>
<linearGradient id="paint5_linear_3112_5493" x1="37.785" y1="37.4541" x2="37.7801" y2="38.084" gradientUnits="userSpaceOnUse">
<stop stop-color="#1485DB"/>
<stop offset="1" stop-color="#0D5E9B"/>
</linearGradient>
<linearGradient id="paint6_linear_3112_5493" x1="33.1731" y1="29.7373" x2="32.9533" y2="48.9261" gradientUnits="userSpaceOnUse">
<stop stop-color="#1485DB"/>
<stop offset="1" stop-color="#0D5E9B"/>
</linearGradient>
<linearGradient id="paint7_linear_3112_5493" x1="33.1152" y1="46.1982" x2="33.0987" y2="48.9278" gradientUnits="userSpaceOnUse">
<stop stop-color="#1485DB"/>
<stop offset="1" stop-color="#0D5E9B"/>
</linearGradient>
<linearGradient id="paint8_linear_3112_5493" x1="35.6101" y1="26.3955" x2="35.6039" y2="27.8653" gradientUnits="userSpaceOnUse">
<stop stop-color="#1485DB"/>
<stop offset="1" stop-color="#0D5E9B"/>
</linearGradient>
<linearGradient id="paint9_linear_3112_5493" x1="33.1479" y1="31.6269" x2="32.8862" y2="48.9246" gradientUnits="userSpaceOnUse">
<stop stop-color="#1485DB"/>
<stop offset="1" stop-color="#0D5E9B"/>
</linearGradient>
<linearGradient id="paint10_linear_3112_5493" x1="30.6101" y1="26.3955" x2="30.6039" y2="27.8653" gradientUnits="userSpaceOnUse">
<stop stop-color="#1485DB"/>
<stop offset="1" stop-color="#0D5E9B"/>
</linearGradient>
</defs>
</svg>
