<svg width="76" height="76" viewBox="0 0 76 76" fill="none" xmlns="http://www.w3.org/2000/svg">
<g id="Service" filter="url(#filter0_d_3112_5535)">
<rect x="8" y="6" width="60" height="60" rx="30" fill="white"/>
<rect x="8.5" y="6.5" width="59" height="59" rx="29.5" stroke="url(#paint0_linear_3112_5535)"/>
<g id="add_circle">
<mask id="mask0_3112_5535" style="mask-type:alpha" maskUnits="userSpaceOnUse" x="22" y="20" width="32" height="33">
<rect id="Bounding box" x="22" y="20.3652" width="32" height="32" fill="#1485DB"/>
</mask>
<g mask="url(#mask0_3112_5535)">
<path id="add_circle_2" d="M36.667 37.6989V41.6989C36.667 42.0767 36.7948 42.3933 37.0503 42.6489C37.3059 42.9044 37.6225 43.0322 38.0003 43.0322C38.3781 43.0322 38.6948 42.9044 38.9503 42.6489C39.2059 42.3933 39.3337 42.0767 39.3337 41.6989V37.6989H43.3337C43.7114 37.6989 44.0281 37.5711 44.2837 37.3156C44.5392 37.06 44.667 36.7433 44.667 36.3656C44.667 35.9878 44.5392 35.6711 44.2837 35.4156C44.0281 35.16 43.7114 35.0322 43.3337 35.0322H39.3337V31.0322C39.3337 30.6544 39.2059 30.3378 38.9503 30.0822C38.6948 29.8267 38.3781 29.6989 38.0003 29.6989C37.6225 29.6989 37.3059 29.8267 37.0503 30.0822C36.7948 30.3378 36.667 30.6544 36.667 31.0322V35.0322H32.667C32.2892 35.0322 31.9725 35.16 31.717 35.4156C31.4614 35.6711 31.3337 35.9878 31.3337 36.3656C31.3337 36.7433 31.4614 37.06 31.717 37.3156C31.9725 37.5711 32.2892 37.6989 32.667 37.6989H36.667ZM38.0003 49.6989C36.1559 49.6989 34.4225 49.3489 32.8003 48.6489C31.1781 47.9489 29.767 46.9989 28.567 45.7989C27.367 44.5989 26.417 43.1878 25.717 41.5656C25.017 39.9433 24.667 38.21 24.667 36.3656C24.667 34.5211 25.017 32.7878 25.717 31.1656C26.417 29.5433 27.367 28.1322 28.567 26.9322C29.767 25.7322 31.1781 24.7822 32.8003 24.0822C34.4225 23.3822 36.1559 23.0322 38.0003 23.0322C39.8448 23.0322 41.5781 23.3822 43.2003 24.0822C44.8225 24.7822 46.2337 25.7322 47.4337 26.9322C48.6337 28.1322 49.5837 29.5433 50.2837 31.1656C50.9837 32.7878 51.3337 34.5211 51.3337 36.3656C51.3337 38.21 50.9837 39.9433 50.2837 41.5656C49.5837 43.1878 48.6337 44.5989 47.4337 45.7989C46.2337 46.9989 44.8225 47.9489 43.2003 48.6489C41.5781 49.3489 39.8448 49.6989 38.0003 49.6989Z" fill="#1485DB"/>
</g>
</g>
</g>
<defs>
<filter id="filter0_d_3112_5535" x="0" y="0" width="76" height="76" filterUnits="userSpaceOnUse" color-interpolation-filters="sRGB">
<feFlood flood-opacity="0" result="BackgroundImageFix"/>
<feColorMatrix in="SourceAlpha" type="matrix" values="0 0 0 0 0 0 0 0 0 0 0 0 0 0 0 0 0 0 127 0" result="hardAlpha"/>
<feOffset dy="2"/>
<feGaussianBlur stdDeviation="4"/>
<feColorMatrix type="matrix" values="0 0 0 0 0.0666667 0 0 0 0 0.0666667 0 0 0 0 0.0666667 0 0 0 0.1 0"/>
<feBlend mode="normal" in2="BackgroundImageFix" result="effect1_dropShadow_3112_5535"/>
<feBlend mode="normal" in="SourceGraphic" in2="effect1_dropShadow_3112_5535" result="shape"/>
</filter>
<linearGradient id="paint0_linear_3112_5535" x1="49.5" y1="64.3652" x2="27.5" y2="18.8652" gradientUnits="userSpaceOnUse">
<stop stop-color="#1485DB"/>
<stop offset="1" stop-color="white" stop-opacity="0"/>
</linearGradient>
</defs>
</svg>
