<svg width="76" height="76" viewBox="0 0 76 76" fill="none" xmlns="http://www.w3.org/2000/svg">
<g id="Service" filter="url(#filter0_d_3112_5453)">
<rect x="8" y="6" width="60" height="60" rx="30" fill="white"/>
<rect x="8.5" y="6.5" width="59" height="59" rx="29.5" stroke="url(#paint0_linear_3112_5453)"/>
<rect x="8.5" y="6.5" width="59" height="59" rx="29.5" stroke="url(#paint1_linear_3112_5453)"/>
<g id="Group 33">
<path id="Vector" d="M40.0871 28.5953L54.0001 30.4464V27.0862L31.9043 20.6484V35.5283H46.9138C47.0248 35.5267 47.1349 35.5473 47.2378 35.5886C47.3407 35.63 47.4343 35.6914 47.5133 35.7693C47.5923 35.8472 47.655 35.94 47.6978 36.0423C47.7406 36.1447 47.7626 36.2545 47.7626 36.3654C47.7626 36.4763 47.7406 36.5861 47.6978 36.6885C47.655 36.7908 47.5923 36.8836 47.5133 36.9615C47.4343 37.0394 47.3407 37.1008 47.2378 37.1422C47.1349 37.1835 47.0248 37.2041 46.9138 37.2025H31.9043V52.0824L54.0001 45.6447V42.2843L40.0871 44.1354C40.0517 44.1354 40.0163 44.1472 39.9809 44.1472C39.7768 44.1464 39.5799 44.072 39.4261 43.9378C39.2724 43.8035 39.1721 43.6184 39.1438 43.4162C39.118 43.1933 39.1798 42.9691 39.3162 42.7909C39.4526 42.6127 39.6529 42.4945 39.8748 42.4612L54.0001 40.5864V32.1443L39.8748 30.2696C39.6529 30.2363 39.4526 30.1181 39.3162 29.9399C39.1798 29.7617 39.118 29.5375 39.1437 29.3146C39.1584 29.2054 39.1944 29.1002 39.2498 29.0049C39.3052 28.9097 39.3787 28.8263 39.4663 28.7595C39.554 28.6927 39.6539 28.6438 39.7604 28.6156C39.8669 28.5875 39.9779 28.5806 40.0871 28.5953Z" fill="url(#paint2_linear_3112_5453)"/>
<path id="Vector_2" d="M30.2182 20.3652H22V52.3652H30.2182V20.3652Z" fill="url(#paint3_linear_3112_5453)"/>
</g>
</g>
<defs>
<filter id="filter0_d_3112_5453" x="0" y="0" width="76" height="76" filterUnits="userSpaceOnUse" color-interpolation-filters="sRGB">
<feFlood flood-opacity="0" result="BackgroundImageFix"/>
<feColorMatrix in="SourceAlpha" type="matrix" values="0 0 0 0 0 0 0 0 0 0 0 0 0 0 0 0 0 0 127 0" result="hardAlpha"/>
<feOffset dy="2"/>
<feGaussianBlur stdDeviation="4"/>
<feColorMatrix type="matrix" values="0 0 0 0 0.0666667 0 0 0 0 0.0666667 0 0 0 0 0.0666667 0 0 0 0.1 0"/>
<feBlend mode="normal" in2="BackgroundImageFix" result="effect1_dropShadow_3112_5453"/>
<feBlend mode="normal" in="SourceGraphic" in2="effect1_dropShadow_3112_5453" result="shape"/>
</filter>
<linearGradient id="paint0_linear_3112_5453" x1="49.5" y1="64.3652" x2="27.5" y2="18.8652" gradientUnits="userSpaceOnUse">
<stop stop-color="#1485DB"/>
<stop offset="1" stop-color="white" stop-opacity="0"/>
</linearGradient>
<linearGradient id="paint1_linear_3112_5453" x1="49.5" y1="64.3652" x2="27.5" y2="18.8652" gradientUnits="userSpaceOnUse">
<stop stop-color="#1485DB"/>
<stop offset="1" stop-color="white" stop-opacity="0"/>
</linearGradient>
<linearGradient id="paint2_linear_3112_5453" x1="43.0413" y1="30.9627" x2="42.8041" y2="52.0808" gradientUnits="userSpaceOnUse">
<stop stop-color="#1485DB"/>
<stop offset="1" stop-color="#0D5E9B"/>
</linearGradient>
<linearGradient id="paint3_linear_3112_5453" x1="26.1422" y1="30.8652" x2="25.4818" y2="52.346" gradientUnits="userSpaceOnUse">
<stop stop-color="#1485DB"/>
<stop offset="1" stop-color="#0D5E9B"/>
</linearGradient>
</defs>
</svg>
