<svg width="77" height="76" viewBox="0 0 77 76" fill="none" xmlns="http://www.w3.org/2000/svg">
<g id="Service" filter="url(#filter0_d_3112_5524)">
<rect x="8.5" y="6" width="60" height="60" rx="30" fill="white"/>
<rect x="9" y="6.5" width="59" height="59" rx="29.5" stroke="url(#paint0_linear_3112_5524)"/>
<g id="Group">
<path id="Vector" d="M34.0099 44.1049C34.0099 43.7049 33.7648 43.3599 33.4198 43.2099V40.9449H29.8449C28.7699 40.9449 27.8949 40.0699 27.8949 38.9949C27.8949 37.9199 28.7699 37.045 29.8449 37.045H33.4198V34.29C33.4198 33.92 33.1198 33.625 32.7498 33.625C32.3848 33.625 32.0848 33.92 32.0848 34.29V34.37H25.42V34.29C25.42 33.92 25.12 33.625 24.75 33.625C24.385 33.625 24.085 33.92 24.085 34.29V43.2099C23.74 43.3599 23.5 43.7049 23.5 44.1049C23.5 44.2349 23.525 44.3549 23.57 44.4699C23.53 44.5249 23.5 44.5949 23.5 44.6699V45.9198C23.5 46.1099 23.655 46.2699 23.85 46.2699H24.085V51.6998C24.085 52.0698 24.385 52.3648 24.75 52.3648C25.12 52.3648 25.42 52.0698 25.42 51.6998V49.2848H32.0849V51.6998C32.0849 52.0698 32.3849 52.3648 32.7499 52.3648C33.1199 52.3648 33.4199 52.0698 33.4199 51.6998V46.2699H33.6599C33.8499 46.2699 34.0099 46.1099 34.0099 45.9198V44.6699C34.0099 44.5949 33.9799 44.5249 33.9349 44.4699C33.9799 44.3549 34.0099 44.2349 34.0099 44.1049ZM32.0849 48.1548H25.42V46.2698H32.0849V48.1548Z" fill="url(#paint1_linear_3112_5524)"/>
<g id="Group_2">
<path id="Vector_2" d="M53.92 44.1049C53.92 43.7049 53.675 43.3599 53.33 43.2099V34.29C53.33 33.92 53.03 33.625 52.66 33.625C52.295 33.625 51.995 33.92 51.995 34.29V34.37H45.3301V34.29C45.3301 33.92 45.0301 33.625 44.6601 33.625C44.2951 33.625 43.9951 33.92 43.9951 34.29V37.045H47.5001C48.5751 37.045 49.4501 37.9199 49.4501 38.9949C49.4501 40.0699 48.5751 40.9449 47.5001 40.9449H43.9951V43.2099C43.6502 43.3599 43.4102 43.7049 43.4102 44.1049C43.4102 44.2349 43.4352 44.3549 43.4802 44.4699C43.4402 44.5248 43.4102 44.5949 43.4102 44.6698V45.9198C43.4102 46.1098 43.5652 46.2698 43.7602 46.2698H43.9951V51.6998C43.9951 52.0698 44.2951 52.3648 44.6601 52.3648C45.0301 52.3648 45.3301 52.0698 45.3301 51.6998V49.2848H51.995V51.6998C51.995 52.0698 52.295 52.3648 52.66 52.3648C53.03 52.3648 53.33 52.0698 53.33 51.6998V46.2698H53.57C53.76 46.2698 53.92 46.1099 53.92 45.9198V44.6698C53.92 44.5949 53.89 44.5248 53.845 44.4699C53.89 44.3549 53.92 44.2349 53.92 44.1049ZM51.995 48.1548H45.3301V46.2699H51.995V48.1548Z" fill="url(#paint2_linear_3112_5524)"/>
<g id="Group_3">
<path id="Vector_3" d="M49.4002 26.7052C49.4002 27.5301 48.4502 28.2051 47.2702 28.2051C46.0752 28.2051 45.1252 27.5301 45.1252 26.7052C45.1252 27.5301 44.1753 28.2051 42.9953 28.2051C41.8003 28.2051 40.8503 27.5301 40.8503 26.7052C40.8503 27.3602 40.2453 27.9151 39.4103 28.1151V37.045H38.0153V28.1151C37.1753 27.9101 36.5754 27.3551 36.5754 26.7052C36.5754 27.5301 35.6254 28.2051 34.4454 28.2051C33.2504 28.2051 32.3005 27.5301 32.3005 26.7052C32.3005 27.5301 31.3455 28.2051 30.1655 28.2051C28.9705 28.2051 28.0205 27.5301 28.0205 26.7052C29.1155 24.4602 33.1304 21.9202 38.0154 21.7002V21.0652C38.0154 20.6802 38.3254 20.3652 38.7104 20.3652C39.0954 20.3652 39.4104 20.6802 39.4104 21.0652V21.7002C44.2903 21.9252 48.3052 24.4652 49.4002 26.7052Z" fill="url(#paint3_linear_3112_5524)"/>
<path id="Vector_4" d="M47.5003 38.0449H29.8455C29.3205 38.0449 28.8955 38.47 28.8955 38.9949C28.8955 39.5199 29.3205 39.9449 29.8455 39.9449H36.2604C36.9354 41.1949 37.1954 42.4899 37.4254 43.7449C37.4654 43.9448 37.6404 44.0899 37.8454 44.0899H37.8511V49.5387H36.5554C36.1651 49.5387 35.8487 49.8551 35.8487 50.2454C35.8487 50.6343 36.1629 50.9493 36.5512 50.9517H35.5554C35.1651 50.9517 34.8487 51.2681 34.8487 51.6584C34.8487 52.0487 35.1651 52.3651 35.5554 52.3651H41.868C42.2583 52.3651 42.5747 52.0487 42.5747 51.6584C42.5747 51.2681 42.2583 50.9517 41.868 50.9517H40.8723C41.2606 50.9494 41.5748 50.6343 41.5748 50.2454C41.5748 49.8551 41.2584 49.5387 40.868 49.5387H39.5723V44.0899H39.5804C39.7854 44.0899 39.9604 43.9449 40.0004 43.7399C40.2254 42.4899 40.4904 41.1949 41.1654 39.9449H47.5003C48.0253 39.9449 48.4503 39.5199 48.4503 38.9949C48.4503 38.47 48.0253 38.0449 47.5003 38.0449Z" fill="url(#paint4_linear_3112_5524)"/>
</g>
</g>
</g>
</g>
<defs>
<filter id="filter0_d_3112_5524" x="0.5" y="0" width="76" height="76" filterUnits="userSpaceOnUse" color-interpolation-filters="sRGB">
<feFlood flood-opacity="0" result="BackgroundImageFix"/>
<feColorMatrix in="SourceAlpha" type="matrix" values="0 0 0 0 0 0 0 0 0 0 0 0 0 0 0 0 0 0 127 0" result="hardAlpha"/>
<feOffset dy="2"/>
<feGaussianBlur stdDeviation="4"/>
<feColorMatrix type="matrix" values="0 0 0 0 0.0666667 0 0 0 0 0.0666667 0 0 0 0 0.0666667 0 0 0 0.1 0"/>
<feBlend mode="normal" in2="BackgroundImageFix" result="effect1_dropShadow_3112_5524"/>
<feBlend mode="normal" in="SourceGraphic" in2="effect1_dropShadow_3112_5524" result="shape"/>
</filter>
<linearGradient id="paint0_linear_3112_5524" x1="50" y1="64.3652" x2="28" y2="18.8652" gradientUnits="userSpaceOnUse">
<stop stop-color="#1485DB"/>
<stop offset="1" stop-color="white" stop-opacity="0"/>
</linearGradient>
<linearGradient id="paint1_linear_3112_5524" x1="28.7973" y1="39.774" x2="28.6201" y2="52.3629" gradientUnits="userSpaceOnUse">
<stop stop-color="#1485DB"/>
<stop offset="1" stop-color="#0D5E9B"/>
</linearGradient>
<linearGradient id="paint2_linear_3112_5524" x1="48.7075" y1="39.774" x2="48.5302" y2="52.3629" gradientUnits="userSpaceOnUse">
<stop stop-color="#1485DB"/>
<stop offset="1" stop-color="#0D5E9B"/>
</linearGradient>
<linearGradient id="paint3_linear_3112_5524" x1="38.7966" y1="25.8383" x2="38.7275" y2="37.0451" gradientUnits="userSpaceOnUse">
<stop stop-color="#1485DB"/>
<stop offset="1" stop-color="#0D5E9B"/>
</linearGradient>
<linearGradient id="paint4_linear_3112_5524" x1="38.7517" y1="42.7437" x2="38.6961" y2="52.3653" gradientUnits="userSpaceOnUse">
<stop stop-color="#1485DB"/>
<stop offset="1" stop-color="#0D5E9B"/>
</linearGradient>
</defs>
</svg>
