<svg width="76" height="76" viewBox="0 0 76 76" fill="none" xmlns="http://www.w3.org/2000/svg">
<g id="Service" filter="url(#filter0_d_3112_5460)">
<rect x="8" y="6" width="60" height="60" rx="30" fill="white"/>
<rect x="8.5" y="6.5" width="59" height="59" rx="29.5" stroke="url(#paint0_linear_3112_5460)"/>
<rect x="8.5" y="6.5" width="59" height="59" rx="29.5" stroke="url(#paint1_linear_3112_5460)"/>
<g id="Group">
<path id="Vector" d="M25.6987 37.6832H33.0234C33.39 37.6832 33.6886 37.385 33.6886 37.0183V35.0771H25.0332V37.0183C25.0332 37.385 25.3318 37.6832 25.6987 37.6832Z" fill="url(#paint2_linear_3112_5460)"/>
<path id="Vector_2" d="M52.7131 35.5117L52.3021 36.2949C52.2661 36.3639 52.1946 36.4071 52.1168 36.4071H51.6182V37.3047H52.2649L52.7131 35.5117Z" fill="url(#paint3_linear_3112_5460)"/>
<path id="Vector_3" d="M42.2372 37.7227C41.7534 37.7227 41.3594 38.1164 41.3594 38.6005V39.62H48.6908V38.6005C48.6908 38.1166 48.2971 37.7227 47.8132 37.7227H42.2372Z" fill="url(#paint4_linear_3112_5460)"/>
<path id="Vector_4" d="M33.6886 32.7172C33.6886 32.3503 33.3903 32.0518 33.0234 32.0518H25.6987C25.3318 32.0518 25.0332 32.3503 25.0332 32.7172V34.6581H33.6886V32.7172Z" fill="url(#paint5_linear_3112_5460)"/>
<path id="Vector_5" d="M45.0202 31.669C44.9898 31.7217 44.9736 31.782 44.9736 31.8431V33.4023C44.9736 33.5946 45.1302 33.7511 45.3224 33.7511C45.5147 33.7511 45.6712 33.5946 45.6712 33.4023V31.9949C45.6712 31.957 45.6815 31.9198 45.7008 31.8875C46.4003 30.7198 47.1511 30.1226 47.9324 30.1126C49.2324 30.1126 50.3443 31.7081 50.4668 31.89C50.49 31.9246 50.5025 31.9653 50.5025 32.0069V39.6204H51.2001V31.8431C51.2001 31.7792 51.1825 31.7167 51.1499 31.6626C51.094 31.5708 49.7611 29.415 47.9436 29.415C47.9377 29.415 47.9321 29.415 47.9263 29.415C46.8526 29.427 45.8743 30.1857 45.0202 31.669Z" fill="url(#paint6_linear_3112_5460)"/>
<path id="Vector_6" d="M41.1375 22.3566H43.0747C43.8845 22.3566 44.5432 21.6979 44.5432 20.8878V20.3652H39.6689V20.8878C39.6689 21.6979 40.3277 22.3566 41.1375 22.3566Z" fill="url(#paint7_linear_3112_5460)"/>
<path id="Vector_7" d="M32.9253 22.3566H34.8628C35.6725 22.3566 36.3313 21.6979 36.3313 20.8878V20.3652H31.457V20.8878C31.457 21.6979 32.1155 22.3566 32.9253 22.3566Z" fill="url(#paint8_linear_3112_5460)"/>
<path id="Vector_8" d="M29.1868 25.4668H46.8142C47.0115 25.4668 47.1717 25.3064 47.1717 25.1091V23.9752C47.1717 23.7776 47.0112 23.6172 46.8142 23.6172H29.1868C28.9895 23.6172 28.8291 23.7779 28.8291 23.9752V25.1091C28.8291 25.3061 28.9895 25.4668 29.1868 25.4668Z" fill="url(#paint9_linear_3112_5460)"/>
<path id="Vector_9" d="M50.3614 44.2441H25.6387V49.2602H50.3614V44.2441Z" fill="url(#paint10_linear_3112_5460)"/>
<path id="Vector_10" d="M53.6423 40.0391H48.9003H41.1501H34.6541H24.0681H22.3577C22.1604 40.0391 22 40.1995 22 40.3968V41.5307C22 41.728 22.1604 41.8884 22.3577 41.8884H22.4523H53.5477H53.642C53.8396 41.8884 54 41.728 54 41.5307V40.3968C54.0003 40.1995 53.8396 40.0391 53.6423 40.0391Z" fill="url(#paint11_linear_3112_5460)"/>
<path id="Vector_11" d="M24.0678 39.62H34.6535C35.1764 39.62 35.6016 39.1944 35.6016 38.6715V30.9208C35.6016 30.3979 35.1764 29.9727 34.6535 29.9727H24.0678C23.5447 29.9727 23.1191 30.3979 23.1191 30.9208V38.6713C23.1191 39.1944 23.5447 39.62 24.0678 39.62ZM24.6144 32.7171C24.6144 32.1195 25.1008 31.6331 25.6984 31.6331H33.0231C33.6208 31.6331 34.1069 32.1195 34.1069 32.7171V37.0178C34.1069 37.6152 33.6208 38.1012 33.0231 38.1012H25.6984C25.1008 38.1012 24.6144 37.6152 24.6144 37.0178V32.7171Z" fill="url(#paint12_linear_3112_5460)"/>
<path id="Vector_12" d="M22.6611 51.6704H53.338V42.3066H22.6611V51.6704ZM25.2198 44.0349C25.2198 43.9194 25.3135 43.8257 25.4291 43.8257H50.5703C50.6859 43.8257 50.7796 43.9194 50.7796 44.0349V49.4695C50.7796 49.585 50.6859 49.6788 50.5703 49.6788H25.4291C25.3135 49.6788 25.2198 49.585 25.2198 49.4695V44.0349Z" fill="url(#paint13_linear_3112_5460)"/>
</g>
</g>
<defs>
<filter id="filter0_d_3112_5460" x="0" y="0" width="76" height="76" filterUnits="userSpaceOnUse" color-interpolation-filters="sRGB">
<feFlood flood-opacity="0" result="BackgroundImageFix"/>
<feColorMatrix in="SourceAlpha" type="matrix" values="0 0 0 0 0 0 0 0 0 0 0 0 0 0 0 0 0 0 127 0" result="hardAlpha"/>
<feOffset dy="2"/>
<feGaussianBlur stdDeviation="4"/>
<feColorMatrix type="matrix" values="0 0 0 0 0.0666667 0 0 0 0 0.0666667 0 0 0 0 0.0666667 0 0 0 0.1 0"/>
<feBlend mode="normal" in2="BackgroundImageFix" result="effect1_dropShadow_3112_5460"/>
<feBlend mode="normal" in="SourceGraphic" in2="effect1_dropShadow_3112_5460" result="shape"/>
</filter>
<linearGradient id="paint0_linear_3112_5460" x1="49.5" y1="64.3652" x2="27.5" y2="18.8652" gradientUnits="userSpaceOnUse">
<stop stop-color="#1485DB"/>
<stop offset="1" stop-color="white" stop-opacity="0"/>
</linearGradient>
<linearGradient id="paint1_linear_3112_5460" x1="49.5" y1="64.3652" x2="27.5" y2="18.8652" gradientUnits="userSpaceOnUse">
<stop stop-color="#1485DB"/>
<stop offset="1" stop-color="white" stop-opacity="0"/>
</linearGradient>
<linearGradient id="paint2_linear_3112_5460" x1="29.3958" y1="35.9323" x2="29.3916" y2="37.6833" gradientUnits="userSpaceOnUse">
<stop stop-color="#1485DB"/>
<stop offset="1" stop-color="#0D5E9B"/>
</linearGradient>
<linearGradient id="paint3_linear_3112_5460" x1="52.17" y1="36.1001" x2="52.1545" y2="37.3046" gradientUnits="userSpaceOnUse">
<stop stop-color="#1485DB"/>
<stop offset="1" stop-color="#0D5E9B"/>
</linearGradient>
<linearGradient id="paint4_linear_3112_5460" x1="45.0546" y1="38.3452" x2="45.052" y2="39.6201" gradientUnits="userSpaceOnUse">
<stop stop-color="#1485DB"/>
<stop offset="1" stop-color="#0D5E9B"/>
</linearGradient>
<linearGradient id="paint5_linear_3112_5460" x1="29.3958" y1="32.907" x2="29.3916" y2="34.6582" gradientUnits="userSpaceOnUse">
<stop stop-color="#1485DB"/>
<stop offset="1" stop-color="#0D5E9B"/>
</linearGradient>
<linearGradient id="paint6_linear_3112_5460" x1="48.112" y1="32.7637" x2="48.0232" y2="39.6196" gradientUnits="userSpaceOnUse">
<stop stop-color="#1485DB"/>
<stop offset="1" stop-color="#0D5E9B"/>
</linearGradient>
<linearGradient id="paint7_linear_3112_5460" x1="42.1257" y1="21.0187" x2="42.1214" y2="22.3567" gradientUnits="userSpaceOnUse">
<stop stop-color="#1485DB"/>
<stop offset="1" stop-color="#0D5E9B"/>
</linearGradient>
<linearGradient id="paint8_linear_3112_5460" x1="33.9138" y1="21.0187" x2="33.9095" y2="22.3567" gradientUnits="userSpaceOnUse">
<stop stop-color="#1485DB"/>
<stop offset="1" stop-color="#0D5E9B"/>
</linearGradient>
<linearGradient id="paint9_linear_3112_5460" x1="38.0743" y1="24.2241" x2="38.0733" y2="25.4669" gradientUnits="userSpaceOnUse">
<stop stop-color="#1485DB"/>
<stop offset="1" stop-color="#0D5E9B"/>
</linearGradient>
<linearGradient id="paint10_linear_3112_5460" x1="38.0997" y1="45.89" x2="38.0943" y2="49.2603" gradientUnits="userSpaceOnUse">
<stop stop-color="#1485DB"/>
<stop offset="1" stop-color="#0D5E9B"/>
</linearGradient>
<linearGradient id="paint11_linear_3112_5460" x1="38.129" y1="40.6459" x2="38.1285" y2="41.8885" gradientUnits="userSpaceOnUse">
<stop stop-color="#1485DB"/>
<stop offset="1" stop-color="#0D5E9B"/>
</linearGradient>
<linearGradient id="paint12_linear_3112_5460" x1="29.4107" y1="33.1382" x2="29.3712" y2="39.62" gradientUnits="userSpaceOnUse">
<stop stop-color="#1485DB"/>
<stop offset="1" stop-color="#0D5E9B"/>
</linearGradient>
<linearGradient id="paint13_linear_3112_5460" x1="38.1233" y1="45.3791" x2="38.1081" y2="51.6707" gradientUnits="userSpaceOnUse">
<stop stop-color="#1485DB"/>
<stop offset="1" stop-color="#0D5E9B"/>
</linearGradient>
</defs>
</svg>
