<svg width="76" height="76" viewBox="0 0 76 76" fill="none" xmlns="http://www.w3.org/2000/svg">
<g id="Service" filter="url(#filter0_d_3112_5508)">
<rect x="8" y="6" width="60" height="60" rx="30" fill="white"/>
<rect x="8.5" y="6.5" width="59" height="59" rx="29.5" stroke="url(#paint0_linear_3112_5508)"/>
<g id="Group">
<path id="Vector" d="M37.1519 50.3084C37.7955 50.6247 38.4391 50.941 39.0827 51.2573H27.7592C26.8141 51.2573 25.8652 51.2793 24.9201 51.2646C24.8171 51.2646 24.7141 51.261 24.6148 51.2536C24.5817 51.2499 24.4567 51.2095 24.5633 51.2499C24.5927 51.261 24.6038 51.2646 24.6075 51.2683C24.6001 51.2683 24.5302 51.2462 24.5155 51.2426C24.3206 51.2058 24.1294 51.158 23.9418 51.0918C23.9344 51.0881 23.9124 51.0844 23.8866 51.0771C23.8572 51.066 23.8315 51.0513 23.8021 51.0403C23.7285 51.0072 23.6549 50.9704 23.5851 50.93C23.5005 50.8822 23.4159 50.8343 23.335 50.7792C23.3019 50.7571 23.2688 50.735 23.2357 50.713C23.2173 50.6983 23.1952 50.6836 23.1768 50.6688C23.1143 50.621 23.1254 50.6321 23.2099 50.6983C23.1511 50.6909 23.0334 50.5512 22.9893 50.5107C22.9304 50.4555 22.8716 50.4004 22.8164 50.3415C22.7502 50.2717 22.6877 50.1981 22.6252 50.1246C22.5406 50.0253 22.6399 50.1466 22.6509 50.1577C22.6215 50.1466 22.559 50.0289 22.5406 49.9995C22.4413 49.8524 22.3531 49.6979 22.2758 49.5361C22.2611 49.5067 22.2133 49.4332 22.2133 49.4037C22.2243 49.4332 22.239 49.4589 22.2501 49.4883C22.239 49.4589 22.228 49.4258 22.2133 49.3964C22.1802 49.3044 22.1471 49.2088 22.1214 49.1169C22.0956 49.0213 22.0736 48.9256 22.0515 48.8263C22.0441 48.7932 22.0405 48.7601 22.0331 48.727C22.0331 48.7234 22.0331 48.7197 22.0294 48.716C22.0294 48.7197 22.0294 48.7234 22.0294 48.727C22.0441 48.8999 22 48.5763 22.0294 48.716C22.0184 48.5836 22.0074 48.4512 22.0074 48.3151C22.0074 48.2931 22.0037 48.2673 22.0037 48.2453C22.0037 48.1018 22 47.9584 22 47.8187V31.4494C22 31.1074 22.0037 30.7617 22.0037 30.4197C22.0037 30.291 22.011 30.1659 22.0221 30.0372C22.0221 30.0225 22.0257 30.0041 22.0294 29.9857C22.0294 29.982 22.0294 29.9747 22.0294 29.971C22.0294 29.9747 22.0294 29.9747 22.0294 29.9784C22.0331 29.9526 22.0405 29.9306 22.0405 29.9306C22.0588 29.8313 22.0809 29.7356 22.1067 29.64C22.1287 29.5591 22.1508 29.4819 22.1802 29.4046C22.1949 29.3568 22.2133 29.3127 22.2317 29.2649C22.2354 29.2575 22.2354 29.2502 22.239 29.2465C22.2317 29.2649 22.2207 29.287 22.2133 29.3054C22.2354 29.2539 22.2464 29.2244 22.2501 29.2208C22.2501 29.2244 22.2464 29.2318 22.239 29.2465C22.2427 29.2355 22.2464 29.2281 22.2538 29.2171C22.3273 29.0553 22.4156 28.9008 22.5112 28.75C22.5296 28.7206 22.6105 28.5625 22.6509 28.5514C22.6326 28.5772 22.6142 28.5992 22.5958 28.625C22.6142 28.5992 22.6362 28.5735 22.6583 28.5514C22.6988 28.5036 22.7429 28.4521 22.787 28.408C22.9047 28.2793 23.0334 28.1653 23.1658 28.0513C23.1952 28.0329 23.2247 28.0071 23.2578 27.9851C23.3497 27.9189 23.4453 27.86 23.5446 27.8049C23.6145 27.7644 23.688 27.7276 23.7579 27.6909C23.7873 27.6762 23.8609 27.6283 23.8903 27.632C23.8609 27.6431 23.8351 27.6578 23.8057 27.6688C23.8351 27.6578 23.8646 27.6431 23.8977 27.632C24.0816 27.5621 24.2728 27.5107 24.4677 27.4702C24.5008 27.4628 24.5339 27.4592 24.567 27.4518C24.5707 27.4518 24.5744 27.4518 24.578 27.4481C24.6773 27.4371 24.7766 27.4297 24.8759 27.4261C24.9237 27.4261 24.9679 27.4224 25.0157 27.4187C25.3246 27.4187 25.6335 27.415 25.9461 27.415H28.5058C28.2336 27.9667 27.9652 28.5183 27.693 29.07C26.8288 30.8279 25.9682 32.5895 25.1039 34.3474C24.7215 35.1271 24.339 35.9067 23.9565 36.6864C23.7395 37.124 23.5262 37.5654 23.3092 38.0067C23.2835 38.0582 23.2578 38.1133 23.232 38.1648C22.8826 38.882 22.6252 39.6138 22.6326 40.4266C22.6326 40.5222 22.6362 40.6215 22.6436 40.7171C22.6436 40.7355 22.6473 40.7539 22.6473 40.7723C22.7833 42.2875 23.7101 43.707 25.115 44.3984C25.2621 44.472 25.4129 44.5456 25.56 44.6191C25.5636 44.6191 25.5673 44.6228 25.571 44.6228C26.0638 44.8655 26.5603 45.1082 27.0531 45.351C28.6529 46.138 30.2563 46.9213 31.8561 47.7083C33.6214 48.5763 35.3867 49.4442 37.1519 50.3084Z" fill="url(#paint1_linear_3112_5508)"/>
<path id="Vector_2" d="M53.9842 32.56C53.9842 32.56 53.9806 32.571 53.9769 32.5858C53.9806 32.571 53.9989 32.5711 53.9769 32.6189C53.9769 32.6225 53.9732 32.6262 53.9732 32.6262C53.9732 32.6299 53.9695 32.6336 53.9658 32.6372C53.9658 32.6372 53.9695 32.6372 53.9695 32.6409C53.9695 32.6446 53.9695 32.6446 53.9695 32.6446C53.9695 32.6483 53.9695 32.652 53.9695 32.652H53.9658C53.9291 32.8138 53.9033 32.9756 53.8518 33.1337C53.8298 33.2073 53.804 33.2772 53.7783 33.347C53.7746 33.3617 53.7709 33.3765 53.7673 33.3875C53.7746 33.3691 53.782 33.3507 53.7856 33.336V33.3397C53.782 33.3544 53.7746 33.3691 53.7709 33.3875C53.7636 33.3985 53.7562 33.4132 53.7525 33.4243C53.7525 33.4279 53.7489 33.4279 53.7489 33.4316C53.7452 33.4353 53.7452 33.439 53.7415 33.4427C53.7378 33.45 53.7342 33.4537 53.7305 33.461C53.7268 33.4684 53.7231 33.4721 53.7231 33.4758C53.3848 34.1635 53.0501 34.8512 52.7118 35.5352C51.9358 37.1203 51.1561 38.7054 50.3801 40.2868C49.5232 42.0337 48.6663 43.7769 47.8095 45.5238C47.2247 46.7116 46.6436 47.9032 46.0589 49.0911C45.9265 49.3632 45.7978 49.6464 45.6396 49.9038C45.5955 49.9737 45.5477 50.0399 45.4999 50.1061L45.4962 50.1098C45.4668 50.1429 45.441 50.176 45.4116 50.2091C45.2903 50.3488 45.1579 50.4812 45.0144 50.6026C45.0071 50.6099 44.996 50.621 44.985 50.632C44.9629 50.6504 44.9335 50.6688 44.9151 50.6798C44.8453 50.7313 44.7717 50.7791 44.6945 50.8233C44.6209 50.8674 44.5437 50.9115 44.4665 50.952C44.437 50.9667 44.4039 50.9851 44.3745 50.9998C44.3525 51.0108 44.3304 51.0218 44.312 51.0292C44.312 51.0292 44.312 51.0292 44.3083 51.0292C44.1539 51.0844 43.9994 51.1395 43.8376 51.18C43.753 51.2021 43.6684 51.2204 43.5801 51.2352L43.5765 51.2388C43.5728 51.2388 43.5691 51.2388 43.5654 51.2388L43.5728 51.2315C43.4514 51.2315 43.5029 51.2388 43.5544 51.2352C43.5176 51.2388 43.4735 51.2462 43.4367 51.2499C43.3411 51.2572 43.2492 51.2609 43.1535 51.2609C43.1057 51.2609 43.0579 51.2609 43.0064 51.2609C43.0028 51.2609 43.0028 51.2609 42.9991 51.2609C42.9623 51.2609 42.9255 51.2572 42.8851 51.2572C42.8851 51.2572 42.8814 51.2572 42.8777 51.2572C42.8446 51.2535 42.8152 51.2535 42.7821 51.2499C42.7711 51.2499 42.7564 51.2499 42.7453 51.2462C42.738 51.2462 42.7306 51.2462 42.7233 51.2462C42.7269 51.2462 42.7269 51.2462 42.7306 51.2462C42.7306 51.2462 42.7306 51.2462 42.7343 51.2462H42.738C42.7416 51.2462 42.7453 51.2462 42.749 51.2462C42.749 51.2462 42.7453 51.2462 42.7416 51.2462C42.7416 51.2462 42.7416 51.2462 42.738 51.2462C42.7343 51.2462 42.7306 51.2462 42.7306 51.2462H42.7269H42.7233H42.7196H42.7159C42.7049 51.2462 42.6975 51.2425 42.6865 51.2425H42.6828C42.6718 51.2425 42.6718 51.2388 42.6865 51.2388C42.6828 51.2388 42.6902 51.2388 42.7159 51.2388C42.7122 51.2388 42.7049 51.2352 42.7012 51.2352C42.6938 51.2352 42.6902 51.2315 42.6828 51.2315C42.6681 51.2278 42.6534 51.2241 42.6387 51.2204H42.635C42.6166 51.2168 42.6019 51.2131 42.5872 51.2131C42.5431 51.2057 42.5026 51.1947 42.4621 51.1837C42.407 51.169 42.3518 51.1542 42.293 51.1395C42.1974 51.1101 42.1054 51.0807 42.0135 51.0439H42.0098H42.0061C42.0061 51.0439 42.0061 51.0439 42.0024 51.0439C42.0024 51.0439 42.0024 51.0439 41.9988 51.0439H41.9951C42.076 51.088 41.9068 51.0145 41.9914 51.0439C41.9877 51.0439 41.984 51.0402 41.984 51.0402C41.9877 51.0402 41.9877 51.0402 41.9914 51.0439C41.9804 51.0366 41.9362 51.0182 41.9031 50.9998C41.8995 50.9998 41.8995 50.9961 41.8958 50.9961C41.8958 50.9961 41.8958 50.9961 41.8921 50.9961C41.8921 50.9961 41.8848 50.9961 41.8811 50.9924C41.8811 50.9924 41.87 50.9924 41.87 50.9887H41.8737C41.8737 50.9887 41.8774 50.9924 41.8737 50.9924V50.9961L41.87 50.9887C41.8443 50.9777 41.8222 50.963 41.7965 50.952C41.6751 50.8931 41.5538 50.8306 41.4324 50.7718C40.958 50.5401 40.4836 50.3047 40.0128 50.073C38.4609 49.3117 36.9089 48.5505 35.3569 47.7892C33.6027 46.9286 31.8484 46.068 30.0905 45.2075C28.8548 44.6007 27.6228 43.9975 26.3871 43.3907C26.3393 43.3686 26.2878 43.3429 26.24 43.3172C26.1481 43.273 26.0561 43.2289 25.9642 43.1811C25.909 43.1553 25.8539 43.1259 25.7987 43.1002C25.7546 43.0781 25.7067 43.0524 25.6626 43.0303C25.6516 43.0229 25.6369 43.0156 25.6258 43.0082C25.6185 43.0046 25.6111 43.0009 25.6001 42.9935C25.578 42.9825 25.5596 42.9715 25.5413 42.9567C25.5302 42.9531 25.5229 42.9457 25.5155 42.942C25.5045 42.9347 25.4971 42.931 25.4861 42.9237C25.4787 42.92 25.4714 42.9126 25.464 42.9089C25.4567 42.9053 25.4493 42.9016 25.4456 42.8979C25.4346 42.8906 25.4272 42.8869 25.4162 42.8795C25.4089 42.8758 25.4015 42.8685 25.3941 42.8648C25.3684 42.8501 25.3463 42.8317 25.3206 42.817C25.3022 42.806 25.2838 42.7913 25.2654 42.7802C25.2654 42.7802 25.2654 42.7802 25.2654 42.7839C25.2617 42.7839 25.2581 42.7839 25.2581 42.7802C25.2029 42.7655 25.1808 42.7324 25.2029 42.7398C25.1772 42.714 25.1514 42.6846 25.133 42.6699C25.1294 42.6662 25.1257 42.6625 25.122 42.6589C25.1183 42.6552 25.1183 42.6552 25.1146 42.6515C25.1036 42.6405 25.0963 42.6331 25.0852 42.6221L25.0815 42.6184C25.0705 42.6074 25.0595 42.5963 25.0484 42.589C25.0264 42.5669 25.0043 42.5485 24.9822 42.5265C24.9712 42.5191 24.9639 42.5081 24.9565 42.5007C24.9491 42.497 24.9455 42.4897 24.9418 42.486C24.9308 42.475 24.9197 42.4639 24.9087 42.4529C24.8977 42.4419 24.8866 42.4308 24.8793 42.4198C24.8572 42.3941 24.8315 42.3683 24.8094 42.3426C24.7947 42.3242 24.7763 42.3058 24.7616 42.2874C24.7542 42.2801 24.7469 42.269 24.7395 42.2617C24.7322 42.2506 24.7211 42.2396 24.7138 42.2323L24.7101 42.2286C24.7101 42.2286 24.7101 42.2286 24.7101 42.2323C24.7138 42.2359 24.7138 42.2433 24.7175 42.2433C24.7285 42.258 24.7358 42.2654 24.7395 42.2654C24.6954 42.2543 24.5998 42.0668 24.574 42.0263C24.563 42.0079 24.552 41.9932 24.5409 41.9748C24.5299 41.9564 24.5189 41.9417 24.5115 41.9233C24.4968 41.8939 24.4784 41.8682 24.4637 41.8387C24.4527 41.8167 24.4416 41.7983 24.4306 41.7762C24.4012 41.7211 24.3718 41.6622 24.346 41.6034C24.346 41.6034 24.3423 41.5997 24.3387 41.5923C24.3387 41.596 24.3423 41.5997 24.3423 41.6034C24.3313 41.6034 24.2908 41.5004 24.3092 41.5335C24.3056 41.5261 24.3019 41.5188 24.3056 41.5151C24.3129 41.5298 24.3203 41.5445 24.3239 41.5629C24.3239 41.5629 24.3239 41.5666 24.3276 41.5666C24.3239 41.5556 24.3166 41.5409 24.3166 41.5298C24.3166 41.5261 24.3129 41.5225 24.3129 41.5188C24.3129 41.5151 24.3129 41.5151 24.3092 41.5114C24.2908 41.4563 24.2725 41.4048 24.2541 41.3496C24.2504 41.3349 24.2467 41.3202 24.2394 41.3055C24.2357 41.2908 24.2283 41.2761 24.2246 41.2577C24.221 41.2466 24.2173 41.2356 24.2136 41.2209C24.2099 41.2135 24.2099 41.2099 24.2063 41.2025C24.1805 41.1032 24.1548 41.0076 24.1364 40.9083C24.1327 40.8936 24.1327 40.8789 24.129 40.8605C24.129 40.8605 24.129 40.8642 24.1254 40.8642C24.1254 40.8605 24.1254 40.8531 24.1254 40.8384C24.1254 40.8384 24.1254 40.8384 24.1254 40.8347C24.1254 40.8274 24.1217 40.82 24.1217 40.809V40.8127C24.1364 40.9745 24.0923 40.6729 24.118 40.7869C24.1143 40.7722 24.1143 40.7649 24.1143 40.7612C24.1143 40.7649 24.118 40.7796 24.1217 40.798C24.118 40.7722 24.118 40.7465 24.1143 40.7171C24.1106 40.684 24.1106 40.6545 24.107 40.6214C24.1033 40.5552 24.0996 40.4927 24.0996 40.4265C24.0996 40.4008 24.0996 40.3714 24.0996 40.3456C24.0996 40.3309 24.0996 40.3162 24.0996 40.3052C24.0996 40.2794 24.0996 40.2537 24.1033 40.2316C24.1033 40.2169 24.1033 40.2022 24.107 40.1875C24.107 40.1838 24.107 40.1764 24.1106 40.1691C24.1106 40.1654 24.1106 40.1654 24.1106 40.1617V40.1581C24.1143 40.125 24.118 40.0882 24.118 40.0551C24.118 40.0551 24.118 40.0551 24.118 40.0514C24.118 40.0477 24.118 40.044 24.118 40.0404C24.118 40.0367 24.118 40.033 24.118 40.033C24.118 40.044 24.1143 40.0551 24.1106 40.0661C24.0923 40.1728 24.1254 39.8859 24.118 40.033C24.1217 40.0036 24.129 39.9742 24.1327 39.9447C24.1548 39.8307 24.1805 39.7204 24.2099 39.6064C24.2136 39.5991 24.2136 39.588 24.2173 39.5807C24.221 39.566 24.2246 39.5512 24.2283 39.5365C24.232 39.5181 24.2394 39.4998 24.2467 39.4814C24.2504 39.4667 24.2577 39.4483 24.2614 39.4336C24.2651 39.4188 24.2725 39.4005 24.2798 39.3857C24.2872 39.371 24.2908 39.3526 24.2982 39.3379C24.2982 39.3343 24.3019 39.3306 24.3019 39.3306C24.3056 39.3195 24.3092 39.3122 24.3129 39.3012C24.3129 39.2975 24.3129 39.2938 24.3129 39.2901C24.3129 39.2864 24.3056 39.2828 24.3056 39.2791C24.3019 39.2864 24.2908 39.2901 24.2908 39.2938C24.2908 39.3048 24.2945 39.2901 24.3239 39.2203H24.335C24.335 39.2239 24.335 39.2276 24.335 39.235C24.335 39.235 24.335 39.2386 24.335 39.2423C24.335 39.2497 24.335 39.2533 24.3313 39.257L24.335 39.2533C24.3534 39.2202 24.3681 39.1835 24.3828 39.1504C24.3938 39.132 24.4012 39.1136 24.4122 39.0915C24.449 39.018 24.4821 38.9481 24.5189 38.8782C24.7616 38.3854 25.0006 37.8963 25.2434 37.4035C26.0598 35.7412 26.8726 34.0789 27.689 32.4203C28.4245 30.9235 29.1564 29.4267 29.8919 27.9262C30.0353 27.6356 30.1751 27.3488 30.3185 27.0582C30.5539 26.5765 30.7893 26.0984 31.0246 25.6166C31.4071 24.8406 31.7859 24.0646 32.1684 23.2886C32.2015 23.2188 32.2383 23.1489 32.2714 23.0753C32.3118 22.9944 32.3523 22.9172 32.3964 22.84C32.4405 22.7664 32.4847 22.6965 32.5325 22.6267C32.5509 22.5972 32.5692 22.5715 32.5913 22.5458C32.6097 22.52 32.6318 22.4906 32.6502 22.4649C32.6318 22.4869 32.6134 22.5127 32.595 22.5347C32.606 22.4759 32.7164 22.3913 32.7568 22.3472C32.812 22.2883 32.8708 22.2295 32.9297 22.1706C32.9885 22.1155 33.051 22.0603 33.1135 22.0088C33.1246 21.9978 33.1393 21.9868 33.1503 21.9794C33.1577 21.972 33.165 21.9684 33.1687 21.9647C33.1577 21.9757 33.1393 21.9868 33.1172 22.0051C33.1246 21.9794 33.2165 21.9353 33.2349 21.9206C33.3673 21.8286 33.5071 21.7477 33.6505 21.6742C33.6873 21.6558 33.8344 21.5565 33.8675 21.5712C33.8675 21.5712 33.6946 21.6374 33.827 21.5896C33.8711 21.5749 33.919 21.5565 33.9631 21.5418C34.1139 21.4903 34.2683 21.4425 34.4265 21.4094C34.4596 21.402 34.4927 21.4204 34.5221 21.3836C34.5368 21.3836 34.5515 21.3836 34.5662 21.3836C34.6324 21.3726 34.6103 21.391 34.5736 21.3983C34.6471 21.3947 34.7611 21.3726 34.8053 21.3689C34.9671 21.3616 35.1289 21.3652 35.2907 21.3799C35.2944 21.3799 35.3017 21.3799 35.3128 21.3836C35.3017 21.3799 35.3091 21.3799 35.3679 21.391C35.379 21.391 35.3863 21.391 35.3863 21.3873C35.3863 21.3873 35.3863 21.3836 35.3827 21.3836C35.4636 21.4204 35.5445 21.4167 35.6254 21.4388C35.7872 21.4756 35.9417 21.5307 36.0961 21.5896C36.0998 21.5896 36.0998 21.5932 36.1035 21.5932L36.1072 21.5969C36.1072 21.5969 36.1108 21.5969 36.1108 21.6006C36.1108 21.6006 36.1108 21.6006 36.1145 21.6006C36.1439 21.6153 36.177 21.63 36.2065 21.6447H36.2101C36.2285 21.6558 36.2506 21.6631 36.269 21.6742C36.5669 21.8213 36.8648 21.9684 37.1626 22.1118C38.5197 22.7775 39.8768 23.4431 41.2375 24.1088C43.0138 24.9804 44.7901 25.852 46.5664 26.7236C48.0228 27.437 49.4828 28.1542 50.9391 28.8677C51.3253 29.0552 51.7078 29.2465 52.0939 29.434C52.1601 29.4671 52.2263 29.5002 52.2962 29.5333C52.4801 29.6252 52.6566 29.7282 52.8258 29.8496C52.8295 29.8533 52.8331 29.8533 52.8405 29.8569C52.8442 29.8606 52.8478 29.8606 52.8515 29.8606C52.8552 29.8643 52.8626 29.868 52.8662 29.8717C52.8773 29.879 52.8809 29.8827 52.8883 29.8827C52.8883 29.8864 52.892 29.8937 52.892 29.8937H52.8993L52.9067 29.8974L52.8993 29.9047C52.903 29.9084 52.8957 29.9158 52.8993 29.9158V29.9084C52.903 29.9121 52.9067 29.9158 52.9067 29.9158C52.9692 29.9673 53.0317 30.0261 53.0906 30.0813C53.1494 30.1364 53.2046 30.199 53.2597 30.2578C53.2855 30.2872 53.3149 30.3166 53.3406 30.3497C53.3554 30.3681 53.3737 30.3865 53.3885 30.4049C53.3811 30.3939 53.3737 30.3828 53.3627 30.3718C53.4068 30.3828 53.4767 30.5336 53.5025 30.5704C53.5466 30.6366 53.5871 30.7065 53.6275 30.7764C53.6643 30.8389 53.6974 30.9051 53.7268 30.9676C53.7415 30.997 53.7562 31.0264 53.7673 31.0559C53.7378 30.9529 53.8445 31.2214 53.7783 31.0742C53.7746 31.0669 53.7709 31.0632 53.7709 31.0559C53.8114 31.203 53.8739 31.3427 53.9107 31.4898C53.9291 31.567 53.9475 31.6443 53.9622 31.7252C53.9658 31.7399 53.9732 31.8392 53.9806 31.8613C53.9916 32.0084 54.0026 32.1518 53.9989 32.2989C53.9953 32.3982 53.9916 32.4791 53.9842 32.56Z" fill="url(#paint2_linear_3112_5508)"/>
</g>
</g>
<defs>
<filter id="filter0_d_3112_5508" x="0" y="0" width="76" height="76" filterUnits="userSpaceOnUse" color-interpolation-filters="sRGB">
<feFlood flood-opacity="0" result="BackgroundImageFix"/>
<feColorMatrix in="SourceAlpha" type="matrix" values="0 0 0 0 0 0 0 0 0 0 0 0 0 0 0 0 0 0 127 0" result="hardAlpha"/>
<feOffset dy="2"/>
<feGaussianBlur stdDeviation="4"/>
<feColorMatrix type="matrix" values="0 0 0 0 0.0666667 0 0 0 0 0.0666667 0 0 0 0 0.0666667 0 0 0 0.1 0"/>
<feBlend mode="normal" in2="BackgroundImageFix" result="effect1_dropShadow_3112_5508"/>
<feBlend mode="normal" in="SourceGraphic" in2="effect1_dropShadow_3112_5508" result="shape"/>
</filter>
<linearGradient id="paint0_linear_3112_5508" x1="49.5" y1="64.3652" x2="27.5" y2="18.8652" gradientUnits="userSpaceOnUse">
<stop stop-color="#1485DB"/>
<stop offset="1" stop-color="white" stop-opacity="0"/>
</linearGradient>
<linearGradient id="paint1_linear_3112_5508" x1="30.6102" y1="35.2423" x2="30.4335" y2="51.2685" gradientUnits="userSpaceOnUse">
<stop stop-color="#1485DB"/>
<stop offset="1" stop-color="#0D5E9B"/>
</linearGradient>
<linearGradient id="paint2_linear_3112_5508" x1="39.1702" y1="31.1747" x2="39.0116" y2="51.2606" gradientUnits="userSpaceOnUse">
<stop stop-color="#1485DB"/>
<stop offset="1" stop-color="#0D5E9B"/>
</linearGradient>
</defs>
</svg>
