<svg width="77" height="76" viewBox="0 0 77 76" fill="none" xmlns="http://www.w3.org/2000/svg">
<g id="Service" filter="url(#filter0_d_3112_5477)">
<rect x="8.5" y="6" width="60" height="60" rx="30" fill="white"/>
<rect x="9" y="6.5" width="59" height="59" rx="29.5" stroke="url(#paint0_linear_3112_5477)"/>
<g id="Group 32">
<path id="Vector" d="M42.5561 50.8055C42.5561 51.6662 41.8578 52.3654 40.9962 52.3654C40.1355 52.3654 39.4375 51.6666 39.4375 50.8055C39.4375 49.9443 40.9962 47.5244 40.9962 47.5244C40.9962 47.5244 42.5561 49.9443 42.5561 50.8055Z" fill="url(#paint1_linear_3112_5477)"/>
<path id="Vector_2" d="M44.2504 43.3748V39.5283C43.2249 40.056 42.0656 40.3592 40.8349 40.3592C39.7311 40.3592 38.6859 40.113 37.741 39.6836V43.3748H36.623V45.884H45.3695V43.3748H44.2504Z" fill="url(#paint2_linear_3112_5477)"/>
<path id="Vector_3" d="M43.9997 26.0658C43.238 23.4237 40.804 21.4836 37.9216 21.4836H32.0088V20.3652H29.5V29.1113H32.0088V27.9926H35.1365C36.5131 26.3811 38.5551 25.3548 40.835 25.3548C41.9667 25.3552 43.0367 25.6144 43.9997 26.0658Z" fill="url(#paint3_linear_3112_5477)"/>
<path id="Vector_4" d="M40.8346 39.5749C37.1308 39.5749 34.1172 36.5608 34.1172 32.8575C34.1172 29.1533 37.1308 26.1396 40.8346 26.1396C44.5388 26.1396 47.5524 29.1533 47.5524 32.8575C47.5524 36.5612 44.5388 39.5749 40.8346 39.5749ZM40.8346 27.1848C37.7073 27.1848 35.1628 29.7298 35.1628 32.8575C35.1628 35.9852 37.7073 38.5293 40.8346 38.5293C43.9627 38.5293 46.5072 35.9852 46.5072 32.8575C46.5072 29.7294 43.9627 27.1848 40.8346 27.1848Z" fill="url(#paint4_linear_3112_5477)"/>
<path id="Vector_5" d="M44.2504 28.851C44.1233 28.851 44.0195 28.7476 44.0195 28.6198V28.157C44.0195 28.0292 44.1233 27.9258 44.2504 27.9258C44.3778 27.9258 44.482 28.0296 44.482 28.157V28.6198C44.482 28.7476 44.3778 28.851 44.2504 28.851Z" fill="url(#paint5_linear_3112_5477)"/>
<path id="Vector_6" d="M44.2504 36.3837C44.1233 36.3837 44.0195 36.2795 44.0195 36.1521V35.2107C44.0195 35.0829 44.1233 34.9791 44.2504 34.9791C44.3778 34.9791 44.482 35.0829 44.482 35.2107V36.1521C44.482 36.2795 44.3778 36.3837 44.2504 36.3837ZM44.2504 34.5006C44.1233 34.5006 44.0195 34.3971 44.0195 34.2693V33.3276C44.0195 33.1998 44.1233 33.0964 44.2504 33.0964C44.3778 33.0964 44.482 33.1998 44.482 33.3276V34.2693C44.482 34.3971 44.3778 34.5006 44.2504 34.5006ZM44.2504 32.6178C44.1233 32.6178 44.0195 32.5136 44.0195 32.3862V31.4444C44.0195 31.317 44.1233 31.2132 44.2504 31.2132C44.3778 31.2132 44.482 31.317 44.482 31.4444V32.3862C44.482 32.514 44.3778 32.6178 44.2504 32.6178ZM44.2504 30.7347C44.1233 30.7347 44.0195 30.6309 44.0195 30.5031V29.5617C44.0195 29.4339 44.1233 29.3301 44.2504 29.3301C44.3778 29.3301 44.482 29.4339 44.482 29.5617V30.5031C44.482 30.6309 44.3778 30.7347 44.2504 30.7347Z" fill="url(#paint6_linear_3112_5477)"/>
<path id="Vector_7" d="M44.2504 37.7882C44.1233 37.7882 44.0195 37.6843 44.0195 37.5562V37.0925C44.0195 36.9651 44.1233 36.8613 44.2504 36.8613C44.3778 36.8613 44.482 36.9651 44.482 37.0925V37.5562C44.482 37.6843 44.3778 37.7882 44.2504 37.7882Z" fill="url(#paint7_linear_3112_5477)"/>
<path id="Vector_8" d="M37.742 38.1786C37.6142 38.1786 37.5107 38.0748 37.5107 37.947V37.4841C37.5107 37.3563 37.6146 37.2529 37.742 37.2529C37.8694 37.2529 37.9736 37.3563 37.9736 37.4841V37.947C37.9736 38.0752 37.8698 38.1786 37.742 38.1786Z" fill="url(#paint8_linear_3112_5477)"/>
<path id="Vector_9" d="M37.742 36.7129C37.6142 36.7129 37.5107 36.6091 37.5107 36.4817V35.4782C37.5107 35.3504 37.6146 35.2466 37.742 35.2466C37.8694 35.2466 37.9736 35.3508 37.9736 35.4782V36.4817C37.9736 36.6091 37.8698 36.7129 37.742 36.7129ZM37.742 34.7067C37.6142 34.7067 37.5107 34.6029 37.5107 34.4755V33.472C37.5107 33.3442 37.6146 33.2408 37.742 33.2408C37.8694 33.2408 37.9736 33.3442 37.9736 33.472V34.4755C37.9736 34.6029 37.8698 34.7067 37.742 34.7067ZM37.742 32.6997C37.6142 32.6997 37.5107 32.5959 37.5107 32.4681V31.4658C37.5107 31.338 37.6146 31.2345 37.742 31.2345C37.8694 31.2345 37.9736 31.3384 37.9736 31.4658V32.4681C37.9736 32.5963 37.8698 32.6997 37.742 32.6997ZM37.742 30.6935C37.6142 30.6935 37.5107 30.5901 37.5107 30.4623V29.4591C37.5107 29.331 37.6146 29.2275 37.742 29.2275C37.8694 29.2275 37.9736 29.3313 37.9736 29.4591V30.4623C37.9736 30.5901 37.8698 30.6935 37.742 30.6935Z" fill="url(#paint9_linear_3112_5477)"/>
<path id="Vector_10" d="M37.742 28.6882C37.6142 28.6882 37.5107 28.5843 37.5107 28.4569V27.9933C37.5107 27.8655 37.6146 27.7617 37.742 27.7617C37.8694 27.7617 37.9736 27.8659 37.9736 27.9933V28.4569C37.9736 28.5843 37.8698 28.6882 37.742 28.6882Z" fill="url(#paint10_linear_3112_5477)"/>
<path id="Vector_11" d="M43.812 32.9698C43.812 32.7197 43.6087 32.5164 43.359 32.5164H43.2544L43.3508 32.4767C43.5824 32.3791 43.6901 32.1141 43.5938 31.8825C43.4974 31.6525 43.2316 31.5424 43 31.6391L42.9442 31.6627L42.987 31.6194C43.164 31.4425 43.164 31.155 42.987 30.9781C42.8105 30.8019 42.5222 30.8011 42.3457 30.9781L42.2718 31.0524L42.3115 30.9565C42.407 30.7241 42.2957 30.459 42.0649 30.3643C41.8325 30.2687 41.5675 30.38 41.4731 30.6124L41.4491 30.6694V30.6073C41.4491 30.3564 41.2458 30.1543 40.9961 30.1543C40.7449 30.1543 40.5412 30.3564 40.5412 30.6073V30.7107L40.5023 30.6152C40.4051 30.3843 40.1401 30.275 39.9085 30.3714C39.6784 30.4681 39.5683 30.7347 39.6647 30.9659L39.6895 31.0221L39.6458 30.9777C39.4685 30.8008 39.181 30.8008 39.0045 30.9777C38.8275 31.155 38.8275 31.4425 39.0045 31.6191L39.078 31.6918L38.9824 31.6537C38.7508 31.5585 38.4854 31.6694 38.391 31.9006C38.2959 32.133 38.4064 32.3976 38.6392 32.492L38.6966 32.5164H38.6337C38.3836 32.5164 38.1807 32.7197 38.1807 32.9698C38.1807 33.221 38.3836 33.4235 38.6337 33.4235H38.7371L38.6423 33.4629C38.4111 33.56 38.3018 33.8254 38.3985 34.0562C38.4956 34.2867 38.7615 34.3972 38.9919 34.3L39.0493 34.2761L39.006 34.3201C38.8283 34.4974 38.8283 34.7849 39.0053 34.961C39.1818 35.1384 39.4693 35.14 39.6466 34.961L39.7193 34.8883L39.6804 34.9831C39.5856 35.2155 39.6961 35.4809 39.9285 35.5749C40.1594 35.6696 40.4252 35.5599 40.5203 35.3283L40.5428 35.2701V35.3323C40.5428 35.5831 40.7468 35.7864 40.9977 35.7864C41.2478 35.7864 41.4507 35.5831 41.4507 35.3323V35.2284L41.4904 35.3244C41.5875 35.5564 41.853 35.6649 42.0842 35.5678C42.315 35.4711 42.4243 35.206 42.3272 34.9744L42.3032 34.9174L42.3472 34.961C42.5238 35.1384 42.8113 35.1384 42.9886 34.961C43.1652 34.7849 43.1655 34.497 42.9886 34.3201L42.9147 34.2458L43.011 34.2867C43.2426 34.3803 43.5069 34.2705 43.6028 34.0385C43.6976 33.8077 43.5871 33.5407 43.3555 33.4467L43.2981 33.4232H43.3598C43.6091 33.4235 43.812 33.221 43.812 32.9698Z" fill="url(#paint11_linear_3112_5477)"/>
</g>
</g>
<defs>
<filter id="filter0_d_3112_5477" x="0.5" y="0" width="76" height="76" filterUnits="userSpaceOnUse" color-interpolation-filters="sRGB">
<feFlood flood-opacity="0" result="BackgroundImageFix"/>
<feColorMatrix in="SourceAlpha" type="matrix" values="0 0 0 0 0 0 0 0 0 0 0 0 0 0 0 0 0 0 127 0" result="hardAlpha"/>
<feOffset dy="2"/>
<feGaussianBlur stdDeviation="4"/>
<feColorMatrix type="matrix" values="0 0 0 0 0.0666667 0 0 0 0 0.0666667 0 0 0 0 0.0666667 0 0 0 0.1 0"/>
<feBlend mode="normal" in2="BackgroundImageFix" result="effect1_dropShadow_3112_5477"/>
<feBlend mode="normal" in="SourceGraphic" in2="effect1_dropShadow_3112_5477" result="shape"/>
</filter>
<linearGradient id="paint0_linear_3112_5477" x1="50" y1="64.3652" x2="28" y2="18.8652" gradientUnits="userSpaceOnUse">
<stop stop-color="#1485DB"/>
<stop offset="1" stop-color="white" stop-opacity="0"/>
</linearGradient>
<linearGradient id="paint1_linear_3112_5477" x1="41.0094" y1="49.1129" x2="40.9695" y2="52.365" gradientUnits="userSpaceOnUse">
<stop stop-color="#1485DB"/>
<stop offset="1" stop-color="#0D5E9B"/>
</linearGradient>
<linearGradient id="paint2_linear_3112_5477" x1="41.0315" y1="41.6138" x2="41.007" y2="45.884" gradientUnits="userSpaceOnUse">
<stop stop-color="#1485DB"/>
<stop offset="1" stop-color="#0D5E9B"/>
</linearGradient>
<linearGradient id="paint3_linear_3112_5477" x1="36.8083" y1="23.235" x2="36.7803" y2="29.1114" gradientUnits="userSpaceOnUse">
<stop stop-color="#1485DB"/>
<stop offset="1" stop-color="#0D5E9B"/>
</linearGradient>
<linearGradient id="paint4_linear_3112_5477" x1="40.889" y1="30.5481" x2="40.8177" y2="39.5747" gradientUnits="userSpaceOnUse">
<stop stop-color="#1485DB"/>
<stop offset="1" stop-color="#0D5E9B"/>
</linearGradient>
<linearGradient id="paint5_linear_3112_5477" x1="44.2526" y1="28.2294" x2="44.2428" y2="28.8509" gradientUnits="userSpaceOnUse">
<stop stop-color="#1485DB"/>
<stop offset="1" stop-color="#0D5E9B"/>
</linearGradient>
<linearGradient id="paint6_linear_3112_5477" x1="44.2526" y1="31.6445" x2="43.69" y2="36.3162" gradientUnits="userSpaceOnUse">
<stop stop-color="#1485DB"/>
<stop offset="1" stop-color="#0D5E9B"/>
</linearGradient>
<linearGradient id="paint7_linear_3112_5477" x1="44.2526" y1="37.1654" x2="44.2428" y2="37.788" gradientUnits="userSpaceOnUse">
<stop stop-color="#1485DB"/>
<stop offset="1" stop-color="#0D5E9B"/>
</linearGradient>
<linearGradient id="paint8_linear_3112_5477" x1="37.744" y1="37.5567" x2="37.7342" y2="38.1784" gradientUnits="userSpaceOnUse">
<stop stop-color="#1485DB"/>
<stop offset="1" stop-color="#0D5E9B"/>
</linearGradient>
<linearGradient id="paint9_linear_3112_5477" x1="37.744" y1="31.6837" x2="37.1121" y2="36.6325" gradientUnits="userSpaceOnUse">
<stop stop-color="#1485DB"/>
<stop offset="1" stop-color="#0D5E9B"/>
</linearGradient>
<linearGradient id="paint10_linear_3112_5477" x1="37.744" y1="28.0657" x2="37.7342" y2="28.688" gradientUnits="userSpaceOnUse">
<stop stop-color="#1485DB"/>
<stop offset="1" stop-color="#0D5E9B"/>
</linearGradient>
<linearGradient id="paint11_linear_3112_5477" x1="41.019" y1="32.0023" x2="40.9892" y2="35.7864" gradientUnits="userSpaceOnUse">
<stop stop-color="#1485DB"/>
<stop offset="1" stop-color="#0D5E9B"/>
</linearGradient>
</defs>
</svg>
